<svg width="17" height="20" viewBox="0 0 17 20" fill="none" xmlns="http://www.w3.org/2000/svg">
<path id="Vector" d="M3.281 3.06355L8.5 0L13.719 3.06355L11.8007 4.19544L8.5 2.26377L5.20021 4.19453L3.281 3.06355ZM13.719 6.92689L11.8007 5.79501L8.5 7.72667L5.20021 5.79592L3.281 6.92689V9.18976L6.58169 11.1214V14.9848L8.5 16.1166L10.4192 14.9848V11.1214L13.719 9.18976V6.92689ZM13.719 13.054V10.7902L11.8007 11.9221V14.185L13.719 13.054ZM15.0817 13.8538L11.781 15.7855V18.0483L17 14.9857V8.85856L15.0808 9.99045V13.8538H15.0817ZM13.1616 4.99522L15.0808 6.12711V8.38997L17 7.25809V4.99522L15.0808 3.86334L13.1625 4.99522H13.1616ZM6.58169 16.6052V18.8681L8.5 20L10.4192 18.8681V16.6043L8.5 17.7362L6.58169 16.6052ZM3.281 13.054L5.20021 14.185V11.9221L3.281 10.7902V13.054ZM6.58169 4.99522L8.5 6.12711L10.4192 4.99522L8.5 3.86334L6.58169 4.99522ZM1.91832 6.12711L3.83842 4.99522L1.91832 3.86334L0 4.99522V7.25809L1.91832 8.38997V6.12711ZM1.91832 9.99045L0 8.85856V14.9848L5.219 18.0483V15.7864L1.91832 13.8547V9.99045Z" fill="#F4BB0B"/>
</svg>
