<svg width="18" height="19" viewBox="0 0 18 19" fill="none" xmlns="http://www.w3.org/2000/svg">
<g id="Frame 1000002516">
<g id="Union">
<mask id="path-1-inside-1_15_11677" fill="white">
<path d="M9.21387 1.50293C9.7344 1.51687 10.2438 1.57897 10.75 1.67383C11.3294 1.78228 12.1094 2.11007 12.6396 2.38379C17.0786 4.67593 18.4129 10.4091 15.3115 14.4014C13.9552 16.147 12.2708 17.0446 10.125 17.4307C9.62694 17.5203 8.52436 17.5238 8.02734 17.4385C7.92251 17.4206 7.83229 17.3873 7.75781 17.375C7.61352 17.3514 7.48961 17.3741 7.32324 17.3311C7.09473 17.2718 6.86054 17.2163 6.62891 17.1514C5.69218 16.8884 4.59538 16.245 3.85742 15.6172C2.21755 14.2221 1.10724 12.1256 1.00879 9.94727C0.995693 9.659 0.99797 9.32128 1.00879 9.03223C1.08503 6.98214 2.15177 4.84833 3.70312 3.52051C5.2925 2.16011 7.10654 1.44646 9.21387 1.50293ZM13.1699 5.02539C10.9369 2.97379 7.51868 2.81883 5.15918 4.74805C3.03345 6.48618 2.27428 9.46308 3.4248 11.9941C4.0744 13.4232 5.16962 14.485 6.59961 15.1016C7.35989 15.4293 8.56248 15.695 9.40234 15.6064C10.541 15.4862 11.8429 15.0659 12.7314 14.3379C14.7081 12.7182 15.557 10.2652 14.8574 7.75781C14.5654 6.71119 13.964 5.75505 13.1699 5.02539ZM8.44824 4.10156C8.54911 4.10009 8.49863 4.31398 8.50098 4.38086C8.61969 7.70935 8.44478 11.1139 8.51855 14.4473C8.5202 14.524 8.56386 14.8251 8.53418 14.873C8.43322 14.9401 8.37966 14.8548 8.2959 14.8389C7.86441 14.7578 7.42928 14.6769 7.02539 14.4961C5.74327 13.9214 4.71282 12.7847 4.21094 11.4414C3.15882 8.6242 4.56346 5.40881 7.34277 4.38184C7.70335 4.24866 8.08045 4.20677 8.44824 4.10156ZM9.45508 4.10156C9.56389 4.12467 9.68504 4.12932 9.79199 4.14844C13.5643 4.81889 15.3905 9.39831 13.1855 12.6074C13.1438 12.6682 13.0562 12.8199 12.9844 12.7959L12.0859 11.8604C12.0706 11.7833 12.3747 11.2861 12.4297 11.167C12.5474 10.9122 12.6098 10.7123 12.665 10.4395C12.6711 10.4109 12.7716 10.1936 12.6914 10.1934H11.8848C11.8447 10.2374 11.7686 10.2763 11.7314 10.3096C11.549 10.4742 11.3862 10.7192 11.2275 10.8799C11.1551 10.9532 11.0695 11.0073 10.9727 11.1152C10.9219 11.1719 10.8233 11.212 10.8037 11.3008L10.7998 14.4268C10.7818 14.6466 10.7144 14.5649 10.5713 14.6143C10.544 14.6237 10.5221 14.6517 10.4932 14.6611C10.1548 14.771 9.81036 14.8573 9.45508 14.8984V10.708L10.2002 9.91016C10.2829 9.82136 10.401 9.72573 10.4814 9.63965C10.5795 9.53482 10.6382 9.48468 10.541 9.35254C10.463 9.24667 10.2912 9.09485 10.1885 9.01758L9.45508 8.22949V4.10156ZM7.14941 6.00098C7.07276 5.996 6.46696 6.49983 6.39746 6.56836C4.77762 8.16788 4.80293 10.8834 6.45508 12.4287C6.6179 12.581 6.82672 12.7825 6.99902 12.915C7.09588 12.9896 7.17892 13.036 7.17871 12.8682C7.17593 10.6073 7.15743 6.06041 7.15723 6.00977L7.14941 6.00098ZM10.7998 7.59863C10.7998 7.61481 10.8548 7.73407 10.8711 7.75781C11.1647 8.01513 11.4044 8.34252 11.6904 8.60547C11.8088 8.71438 11.8817 8.77716 12.0498 8.78711C12.0977 8.79004 12.1408 8.77172 12.1777 8.77246C12.3544 8.77666 12.5262 8.77501 12.7002 8.7832C12.6997 8.45941 12.5835 8.12706 12.4541 7.8291C12.1844 7.20878 11.8564 6.79695 11.3506 6.36621C11.1897 6.22928 11.0233 6.05107 10.7998 6.03418V7.59863Z"/>
</mask>
<path d="M9.21387 1.50293C9.7344 1.51687 10.2438 1.57897 10.75 1.67383C11.3294 1.78228 12.1094 2.11007 12.6396 2.38379C17.0786 4.67593 18.4129 10.4091 15.3115 14.4014C13.9552 16.147 12.2708 17.0446 10.125 17.4307C9.62694 17.5203 8.52436 17.5238 8.02734 17.4385C7.92251 17.4206 7.83229 17.3873 7.75781 17.375C7.61352 17.3514 7.48961 17.3741 7.32324 17.3311C7.09473 17.2718 6.86054 17.2163 6.62891 17.1514C5.69218 16.8884 4.59538 16.245 3.85742 15.6172C2.21755 14.2221 1.10724 12.1256 1.00879 9.94727C0.995693 9.659 0.99797 9.32128 1.00879 9.03223C1.08503 6.98214 2.15177 4.84833 3.70312 3.52051C5.2925 2.16011 7.10654 1.44646 9.21387 1.50293ZM13.1699 5.02539C10.9369 2.97379 7.51868 2.81883 5.15918 4.74805C3.03345 6.48618 2.27428 9.46308 3.4248 11.9941C4.0744 13.4232 5.16962 14.485 6.59961 15.1016C7.35989 15.4293 8.56248 15.695 9.40234 15.6064C10.541 15.4862 11.8429 15.0659 12.7314 14.3379C14.7081 12.7182 15.557 10.2652 14.8574 7.75781C14.5654 6.71119 13.964 5.75505 13.1699 5.02539ZM8.44824 4.10156C8.54911 4.10009 8.49863 4.31398 8.50098 4.38086C8.61969 7.70935 8.44478 11.1139 8.51855 14.4473C8.5202 14.524 8.56386 14.8251 8.53418 14.873C8.43322 14.9401 8.37966 14.8548 8.2959 14.8389C7.86441 14.7578 7.42928 14.6769 7.02539 14.4961C5.74327 13.9214 4.71282 12.7847 4.21094 11.4414C3.15882 8.6242 4.56346 5.40881 7.34277 4.38184C7.70335 4.24866 8.08045 4.20677 8.44824 4.10156ZM9.45508 4.10156C9.56389 4.12467 9.68504 4.12932 9.79199 4.14844C13.5643 4.81889 15.3905 9.39831 13.1855 12.6074C13.1438 12.6682 13.0562 12.8199 12.9844 12.7959L12.0859 11.8604C12.0706 11.7833 12.3747 11.2861 12.4297 11.167C12.5474 10.9122 12.6098 10.7123 12.665 10.4395C12.6711 10.4109 12.7716 10.1936 12.6914 10.1934H11.8848C11.8447 10.2374 11.7686 10.2763 11.7314 10.3096C11.549 10.4742 11.3862 10.7192 11.2275 10.8799C11.1551 10.9532 11.0695 11.0073 10.9727 11.1152C10.9219 11.1719 10.8233 11.212 10.8037 11.3008L10.7998 14.4268C10.7818 14.6466 10.7144 14.5649 10.5713 14.6143C10.544 14.6237 10.5221 14.6517 10.4932 14.6611C10.1548 14.771 9.81036 14.8573 9.45508 14.8984V10.708L10.2002 9.91016C10.2829 9.82136 10.401 9.72573 10.4814 9.63965C10.5795 9.53482 10.6382 9.48468 10.541 9.35254C10.463 9.24667 10.2912 9.09485 10.1885 9.01758L9.45508 8.22949V4.10156ZM7.14941 6.00098C7.07276 5.996 6.46696 6.49983 6.39746 6.56836C4.77762 8.16788 4.80293 10.8834 6.45508 12.4287C6.6179 12.581 6.82672 12.7825 6.99902 12.915C7.09588 12.9896 7.17892 13.036 7.17871 12.8682C7.17593 10.6073 7.15743 6.06041 7.15723 6.00977L7.14941 6.00098ZM10.7998 7.59863C10.7998 7.61481 10.8548 7.73407 10.8711 7.75781C11.1647 8.01513 11.4044 8.34252 11.6904 8.60547C11.8088 8.71438 11.8817 8.77716 12.0498 8.78711C12.0977 8.79004 12.1408 8.77172 12.1777 8.77246C12.3544 8.77666 12.5262 8.77501 12.7002 8.7832C12.6997 8.45941 12.5835 8.12706 12.4541 7.8291C12.1844 7.20878 11.8564 6.79695 11.3506 6.36621C11.1897 6.22928 11.0233 6.05107 10.7998 6.03418V7.59863Z" fill="url(#paint0_linear_15_11677)"/>
<path d="M9.21387 1.50293L9.21108 1.60696L9.21108 1.60696L9.21387 1.50293ZM10.75 1.67383L10.7308 1.77611L10.7309 1.77612L10.75 1.67383ZM12.6396 2.38379L12.6874 2.29132L12.6874 2.29132L12.6396 2.38379ZM15.3115 14.4014L15.3937 14.4652L15.3937 14.4652L15.3115 14.4014ZM10.125 17.4307L10.1066 17.3282L10.1066 17.3282L10.125 17.4307ZM8.02734 17.4385L8.04495 17.3359L8.04486 17.3359L8.02734 17.4385ZM7.75781 17.375L7.77473 17.2723L7.77462 17.2723L7.75781 17.375ZM7.32324 17.3311L7.29711 17.4318L7.29719 17.4318L7.32324 17.3311ZM6.62891 17.1514L6.60078 17.2516L6.60083 17.2516L6.62891 17.1514ZM3.85742 15.6172L3.78999 15.6965L3.78999 15.6965L3.85742 15.6172ZM1.00879 9.94727L1.11275 9.94257L1.11275 9.94254L1.00879 9.94727ZM1.00879 9.03223L1.11278 9.03612L1.11278 9.03609L1.00879 9.03223ZM3.70312 3.52051L3.77079 3.59957L3.77079 3.59957L3.70312 3.52051ZM13.1699 5.02539L13.2403 4.94876L13.2403 4.94876L13.1699 5.02539ZM5.15918 4.74805L5.09331 4.66748L5.09331 4.66748L5.15918 4.74805ZM3.4248 11.9941L3.51954 11.9511L3.51954 11.9511L3.4248 11.9941ZM6.59961 15.1016L6.55841 15.1971L6.55841 15.1971L6.59961 15.1016ZM9.40234 15.6064L9.41326 15.7099L9.41327 15.7099L9.40234 15.6064ZM12.7314 14.3379L12.7974 14.4184L12.7974 14.4184L12.7314 14.3379ZM14.8574 7.75781L14.9577 7.72985L14.9577 7.72984L14.8574 7.75781ZM8.44824 4.10156L8.44673 3.99751L8.43291 3.99771L8.41962 4.00151L8.44824 4.10156ZM8.50098 4.38086L8.39698 4.3845L8.39698 4.38457L8.50098 4.38086ZM8.51855 14.4473L8.6226 14.445L8.62259 14.445L8.51855 14.4473ZM8.53418 14.873L8.59173 14.9597L8.61067 14.9472L8.62264 14.9279L8.53418 14.873ZM8.2959 14.8389L8.3154 14.7366L8.31512 14.7366L8.2959 14.8389ZM7.02539 14.4961L6.98283 14.5911L6.98287 14.5911L7.02539 14.4961ZM4.21094 11.4414L4.11345 11.4778L4.11345 11.4778L4.21094 11.4414ZM7.34277 4.38184L7.30672 4.28422L7.3067 4.28422L7.34277 4.38184ZM9.45508 4.10156L9.4767 3.99977L9.35101 3.97308V4.10156H9.45508ZM9.79199 4.14844L9.77368 4.25088L9.77378 4.2509L9.79199 4.14844ZM13.1855 12.6074L13.2713 12.6664L13.2713 12.6664L13.1855 12.6074ZM12.9844 12.7959L12.9093 12.868L12.9271 12.8864L12.9513 12.8946L12.9844 12.7959ZM12.0859 11.8604L11.9839 11.8806L11.9898 11.9105L12.0109 11.9324L12.0859 11.8604ZM12.4297 11.167L12.3352 11.1234L12.3352 11.1234L12.4297 11.167ZM12.665 10.4395L12.5632 10.418L12.563 10.4188L12.665 10.4395ZM12.6914 10.1934L12.6917 10.0893H12.6914V10.1934ZM11.8848 10.1934V10.0893H11.8387L11.8077 10.1234L11.8848 10.1934ZM11.7314 10.3096L11.662 10.2321L11.6617 10.2323L11.7314 10.3096ZM11.2275 10.8799L11.3016 10.953L11.3016 10.953L11.2275 10.8799ZM10.9727 11.1152L10.8952 11.0458L10.8951 11.0458L10.9727 11.1152ZM10.8037 11.3008L10.7021 11.2783L10.6997 11.2893L10.6996 11.3007L10.8037 11.3008ZM10.7998 14.4268L10.9039 14.4353L10.9039 14.4269L10.7998 14.4268ZM10.5713 14.6143L10.5374 14.5159L10.5371 14.516L10.5713 14.6143ZM10.4932 14.6611L10.5253 14.7601L10.5255 14.7601L10.4932 14.6611ZM9.45508 14.8984H9.35101V15.0153L9.46705 15.0018L9.45508 14.8984ZM9.45508 10.708L9.37902 10.637L9.35101 10.667V10.708H9.45508ZM10.2002 9.91016L10.2763 9.98119L10.2764 9.98107L10.2002 9.91016ZM10.4814 9.63965L10.4054 9.56856L10.4054 9.56858L10.4814 9.63965ZM10.541 9.35254L10.6248 9.29086L10.6248 9.2908L10.541 9.35254ZM10.1885 9.01758L10.1123 9.08847L10.1186 9.09522L10.1259 9.10075L10.1885 9.01758ZM9.45508 8.22949H9.35101V8.27042L9.3789 8.30039L9.45508 8.22949ZM7.14941 6.00098L7.22719 5.93184L7.1988 5.8999L7.15616 5.89713L7.14941 6.00098ZM6.39746 6.56836L6.3244 6.49426L6.32434 6.49431L6.39746 6.56836ZM6.45508 12.4287L6.52618 12.3527L6.52616 12.3527L6.45508 12.4287ZM6.99902 12.915L7.06251 12.8326L7.06249 12.8326L6.99902 12.915ZM7.17871 12.8682L7.28278 12.868L7.28278 12.868L7.17871 12.8682ZM7.15723 6.00977L7.26129 6.00934L7.26113 5.97002L7.23501 5.94063L7.15723 6.00977ZM10.8711 7.75781L10.7854 7.81682L10.7927 7.82752L10.8025 7.83608L10.8711 7.75781ZM11.6904 8.60547L11.7609 8.52888L11.7609 8.52886L11.6904 8.60547ZM12.0498 8.78711L12.0562 8.68324L12.056 8.68323L12.0498 8.78711ZM12.1777 8.77246L12.1802 8.66842L12.1798 8.66842L12.1777 8.77246ZM12.7002 8.7832L12.6953 8.88715L12.8044 8.89229L12.8043 8.78304L12.7002 8.7832ZM12.4541 7.8291L12.5495 7.78764L12.5495 7.78761L12.4541 7.8291ZM11.3506 6.36621L11.4181 6.28698L11.418 6.28696L11.3506 6.36621ZM10.7998 6.03418L10.8076 5.93041L10.6957 5.92196V6.03418H10.7998ZM9.21387 1.50293L9.21108 1.60696C9.72514 1.62072 10.229 1.68206 10.7308 1.77611L10.75 1.67383L10.7692 1.57154C10.2586 1.47587 9.74367 1.41301 9.21665 1.3989L9.21387 1.50293ZM10.75 1.67383L10.7309 1.77612C11.2955 1.88181 12.065 2.20427 12.5919 2.47626L12.6396 2.38379L12.6874 2.29132C12.1538 2.01588 11.3633 1.68275 10.7691 1.57154L10.75 1.67383ZM12.6396 2.38379L12.5919 2.47625C16.974 4.73904 18.2901 10.3975 15.2293 14.3375L15.3115 14.4014L15.3937 14.4652C18.5357 10.4206 17.1832 4.61281 12.6874 2.29132L12.6396 2.38379ZM15.3115 14.4014L15.2293 14.3375C13.891 16.0601 12.2309 16.946 10.1066 17.3282L10.125 17.4307L10.1434 17.5331C12.3108 17.1431 14.0194 16.234 15.3937 14.4652L15.3115 14.4014ZM10.125 17.4307L10.1066 17.3282C9.86662 17.3714 9.4737 17.3947 9.07542 17.3961C8.67715 17.3975 8.28443 17.377 8.04495 17.3359L8.02734 17.4385L8.00974 17.541C8.26727 17.5852 8.67436 17.6057 9.07615 17.6042C9.47792 17.6028 9.88532 17.5795 10.1434 17.5331L10.125 17.4307ZM8.02734 17.4385L8.04486 17.3359C7.99772 17.3278 7.95312 17.3162 7.90823 17.3041C7.86544 17.2926 7.81831 17.2795 7.77473 17.2723L7.75781 17.375L7.7409 17.4777C7.77179 17.4828 7.80701 17.4924 7.85416 17.5051C7.89921 17.5172 7.95214 17.5312 8.00983 17.5411L8.02734 17.4385ZM7.75781 17.375L7.77462 17.2723C7.69424 17.2591 7.6181 17.2588 7.55276 17.2563C7.48549 17.2538 7.42168 17.249 7.3493 17.2303L7.32324 17.3311L7.29719 17.4318C7.39118 17.4561 7.4725 17.4615 7.54485 17.4643C7.61913 17.4671 7.67709 17.4672 7.741 17.4777L7.75781 17.375ZM7.32324 17.3311L7.34938 17.2303C7.11778 17.1702 6.88756 17.1158 6.65698 17.0512L6.62891 17.1514L6.60083 17.2516C6.83353 17.3168 7.07167 17.3733 7.29711 17.4318L7.32324 17.3311ZM6.62891 17.1514L6.65704 17.0512C5.7378 16.7931 4.65404 16.1582 3.92485 15.5379L3.85742 15.6172L3.78999 15.6965C4.53672 16.3317 5.64656 16.9836 6.60078 17.2516L6.62891 17.1514ZM3.85742 15.6172L3.92485 15.5379C2.30511 14.16 1.20978 12.0897 1.11275 9.94257L1.00879 9.94727L0.90483 9.95196C1.00469 12.1615 2.12999 14.2843 3.78999 15.6965L3.85742 15.6172ZM1.00879 9.94727L1.11275 9.94254C1.09982 9.6579 1.10204 9.32317 1.11278 9.03612L1.00879 9.03223L0.904797 9.02833C0.893903 9.3194 0.891571 9.66011 0.904831 9.95199L1.00879 9.94727ZM1.00879 9.03223L1.11278 9.03609C1.18791 7.01611 2.24068 4.90921 3.77079 3.59957L3.70312 3.52051L3.63546 3.44145C2.06285 4.78745 0.98216 6.94816 0.904796 9.02836L1.00879 9.03223ZM3.70312 3.52051L3.77079 3.59957C5.34247 2.25432 7.1319 1.55124 9.21108 1.60696L9.21387 1.50293L9.21665 1.3989C7.08119 1.34168 5.24253 2.0659 3.63546 3.44145L3.70312 3.52051ZM13.1699 5.02539L13.2403 4.94876C10.9704 2.86325 7.49416 2.70446 5.09331 4.66748L5.15918 4.74805L5.22505 4.82861C7.5432 2.9332 10.9034 3.08433 13.0995 5.10202L13.1699 5.02539ZM5.15918 4.74805L5.09331 4.66748C2.93237 6.4344 2.1593 9.46159 3.33007 12.0372L3.4248 11.9941L3.51954 11.9511C2.38927 9.46456 3.13453 6.53795 5.22505 4.82861L5.15918 4.74805ZM3.4248 11.9941L3.33007 12.0372C3.9905 13.4901 5.10496 14.5704 6.55841 15.1971L6.59961 15.1016L6.64081 15.006C5.23427 14.3995 4.1583 13.3563 3.51954 11.9511L3.4248 11.9941ZM6.59961 15.1016L6.55841 15.1971C7.32956 15.5296 8.55047 15.8009 9.41326 15.7099L9.40234 15.6064L9.39143 15.503C8.57448 15.5891 7.39021 15.3291 6.64081 15.006L6.59961 15.1016ZM9.40234 15.6064L9.41327 15.7099C10.5649 15.5883 11.8884 15.1632 12.7974 14.4184L12.7314 14.3379L12.6655 14.2574C11.7975 14.9687 10.517 15.3841 9.39142 15.503L9.40234 15.6064ZM12.7314 14.3379L12.7974 14.4184C14.8044 12.7738 15.6688 10.2789 14.9577 7.72985L14.8574 7.75781L14.7572 7.78578C15.4451 10.2515 14.6117 12.6625 12.6655 14.2574L12.7314 14.3379ZM14.8574 7.75781L14.9577 7.72984C14.6602 6.66379 14.0481 5.691 13.2403 4.94876L13.1699 5.02539L13.0995 5.10202C13.8799 5.8191 14.4705 6.7586 14.7572 7.78578L14.8574 7.75781ZM8.44824 4.10156L8.44976 4.20562C8.44295 4.20572 8.43108 4.20369 8.41939 4.19544C8.40873 4.18792 8.40466 4.17977 8.40396 4.17822C8.40339 4.17697 8.40456 4.17916 8.40568 4.18682C8.40676 4.19413 8.40744 4.20382 8.40749 4.21606C8.40761 4.241 8.4052 4.26914 8.40234 4.29885C8.39995 4.32377 8.39608 4.35903 8.39698 4.3845L8.50098 4.38086L8.60498 4.37722C8.6047 4.36925 8.60626 4.35269 8.60952 4.31875C8.61232 4.28959 8.61579 4.25181 8.61562 4.21511C8.61547 4.181 8.61242 4.13389 8.59346 4.09214C8.58326 4.0697 8.56657 4.04456 8.53935 4.02536C8.51111 4.00544 8.47876 3.99704 8.44673 3.99751L8.44824 4.10156ZM8.50098 4.38086L8.39698 4.38457C8.45624 6.04606 8.44223 7.72707 8.42256 9.41103C8.4029 11.0942 8.37758 12.7807 8.41451 14.4496L8.51855 14.4473L8.62259 14.445C8.58575 12.7805 8.611 11.098 8.63067 9.41346C8.65034 7.72968 8.66443 6.04415 8.60498 4.37715L8.50098 4.38086ZM8.51855 14.4473L8.41451 14.4495C8.41542 14.4915 8.42771 14.5975 8.43439 14.6794C8.43804 14.7241 8.44047 14.7652 8.44043 14.7969C8.4404 14.8129 8.43974 14.8241 8.43886 14.8311C8.43748 14.8419 8.43684 14.8326 8.44571 14.8182L8.53418 14.873L8.62264 14.9279C8.63894 14.9015 8.64343 14.8723 8.64534 14.8572C8.64775 14.8382 8.64853 14.8174 8.64856 14.7973C8.64862 14.7566 8.6456 14.7086 8.64184 14.6625C8.6337 14.5627 8.62334 14.4798 8.6226 14.445L8.51855 14.4473ZM8.53418 14.873L8.47662 14.7863C8.47 14.7907 8.46559 14.7927 8.46323 14.7935C8.46104 14.7943 8.46014 14.7943 8.46014 14.7943C8.46008 14.7943 8.4595 14.7944 8.45787 14.794C8.45606 14.7937 8.45296 14.7928 8.44799 14.7908C8.43447 14.7852 8.42604 14.7799 8.40081 14.7673C8.37988 14.7568 8.3506 14.7434 8.3154 14.7366L8.2959 14.8389L8.2764 14.9411C8.28308 14.9424 8.2919 14.9455 8.30773 14.9535C8.31926 14.9592 8.34622 14.974 8.36919 14.9834C8.39584 14.9943 8.43075 15.0045 8.47214 15.0021C8.5142 14.9997 8.55398 14.9848 8.59173 14.9597L8.53418 14.873ZM8.2959 14.8389L8.31512 14.7366C7.88135 14.6551 7.45865 14.5761 7.06792 14.4011L7.02539 14.4961L6.98287 14.5911C7.39991 14.7778 7.84747 14.8605 8.27668 14.9411L8.2959 14.8389ZM7.02539 14.4961L7.06795 14.4011C5.81275 13.8385 4.80116 12.7238 4.30842 11.405L4.21094 11.4414L4.11345 11.4778C4.62448 12.8455 5.67379 14.0043 6.98283 14.5911L7.02539 14.4961ZM4.21094 11.4414L4.30843 11.405C3.2755 8.63918 4.65613 5.48552 7.37884 4.47945L7.34277 4.38184L7.3067 4.28422C4.4708 5.33211 3.04214 8.60922 4.11345 11.4778L4.21094 11.4414ZM7.34277 4.38184L7.37883 4.47946C7.55187 4.41554 7.73029 4.37302 7.9149 4.3329C8.09757 4.29321 8.28875 4.25542 8.47686 4.20162L8.44824 4.10156L8.41962 4.00151C8.23994 4.05291 8.05867 4.08867 7.8707 4.12952C7.68467 4.16994 7.49425 4.21495 7.30672 4.28422L7.34277 4.38184ZM9.45508 4.10156L9.43346 4.20336C9.4934 4.21609 9.5555 4.22349 9.6126 4.22991C9.67147 4.23653 9.72436 4.24206 9.77368 4.25088L9.79199 4.14844L9.8103 4.046C9.75267 4.03569 9.69152 4.02934 9.63587 4.02308C9.57845 4.01663 9.52557 4.01015 9.4767 3.99977L9.45508 4.10156ZM9.79199 4.14844L9.77378 4.2509C13.4677 4.90741 15.2642 9.39841 13.0998 12.5485L13.1855 12.6074L13.2713 12.6664C15.5169 9.3982 13.661 4.73037 9.8102 4.04598L9.79199 4.14844ZM13.1855 12.6074L13.0998 12.5485C13.074 12.586 13.0484 12.629 13.0169 12.6661C13.0016 12.6842 12.9908 12.6933 12.9853 12.6968C12.9797 12.7002 12.9941 12.6894 13.0174 12.6972L12.9844 12.7959L12.9513 12.8946C13.0106 12.9144 13.0628 12.8936 13.0952 12.8735C13.1276 12.8534 13.1548 12.8253 13.1756 12.8008C13.2162 12.7529 13.2553 12.6896 13.2713 12.6664L13.1855 12.6074ZM12.9844 12.7959L13.0594 12.7238L12.161 11.7883L12.0859 11.8604L12.0109 11.9324L12.9093 12.868L12.9844 12.7959ZM12.0859 11.8604L12.188 11.8401C12.1908 11.854 12.1886 11.8624 12.1891 11.8593C12.1894 11.858 12.1903 11.8537 12.1929 11.8458C12.1981 11.83 12.2071 11.8078 12.22 11.7796C12.2457 11.7237 12.2826 11.6532 12.3229 11.5792C12.4002 11.4371 12.4949 11.2741 12.5242 11.2106L12.4297 11.167L12.3352 11.1234C12.3095 11.179 12.2247 11.3242 12.1401 11.4797C12.0993 11.5545 12.0596 11.6302 12.0309 11.6928C12.0166 11.724 12.0039 11.7543 11.9952 11.7809C11.9908 11.7941 11.9868 11.8086 11.9842 11.823C11.982 11.8357 11.9792 11.8571 11.9839 11.8806L12.0859 11.8604ZM12.4297 11.167L12.5242 11.2106C12.6456 10.9478 12.7104 10.7401 12.767 10.4601L12.665 10.4395L12.563 10.4188C12.5093 10.6845 12.4492 10.8766 12.3352 11.1234L12.4297 11.167ZM12.665 10.4395L12.7669 10.461C12.7658 10.4662 12.7649 10.4673 12.7689 10.4564C12.7722 10.4476 12.7755 10.4388 12.7806 10.4251C12.7898 10.4002 12.8017 10.3668 12.8109 10.3333C12.8193 10.3028 12.8291 10.2596 12.8257 10.2192C12.8239 10.1986 12.8179 10.1661 12.7942 10.137C12.7667 10.1034 12.7281 10.0894 12.6917 10.0893L12.6914 10.1934L12.6911 10.2974C12.6748 10.2974 12.6506 10.2903 12.6329 10.2686C12.6257 10.2598 12.6221 10.2515 12.6204 10.2462C12.6187 10.2409 12.6183 10.2374 12.6183 10.2367C12.6182 10.2356 12.6185 10.2388 12.6171 10.2477C12.6158 10.2559 12.6135 10.2662 12.6102 10.2783C12.6035 10.3027 12.5942 10.329 12.5854 10.3529C12.5814 10.3635 12.5766 10.3764 12.5735 10.385C12.5711 10.3914 12.5658 10.4056 12.5632 10.418L12.665 10.4395ZM12.6914 10.1934V10.0893H11.8848V10.1934V10.2974H12.6914V10.1934ZM11.8848 10.1934L11.8077 10.1234C11.7972 10.135 11.7782 10.1494 11.7487 10.1693C11.7252 10.1852 11.6875 10.2092 11.662 10.2321L11.7314 10.3096L11.8009 10.3871C11.8125 10.3767 11.8314 10.3646 11.8653 10.3417C11.8932 10.3229 11.9323 10.2958 11.9618 10.2633L11.8848 10.1934ZM11.7314 10.3096L11.6617 10.2323C11.564 10.3205 11.4732 10.4286 11.39 10.5303C11.3047 10.6346 11.2284 10.7309 11.1535 10.8068L11.2275 10.8799L11.3016 10.953C11.3853 10.8682 11.4698 10.7616 11.5511 10.6621C11.6346 10.56 11.7165 10.4633 11.8012 10.3868L11.7314 10.3096ZM11.2275 10.8799L11.1535 10.8068C11.1215 10.8392 11.0873 10.8667 11.0419 10.9053C10.9979 10.9427 10.9482 10.9867 10.8952 11.0458L10.9727 11.1152L11.0501 11.1847C11.094 11.1358 11.1355 11.0988 11.1766 11.0639C11.2164 11.0301 11.2612 10.9939 11.3016 10.953L11.2275 10.8799ZM10.9727 11.1152L10.8951 11.0458C10.8888 11.0528 10.8792 11.0613 10.8633 11.0738C10.8499 11.0844 10.8279 11.1009 10.8094 11.1164C10.771 11.1488 10.7195 11.1997 10.7021 11.2783L10.8037 11.3008L10.9053 11.3233C10.9076 11.3131 10.9151 11.2995 10.9436 11.2755C10.9586 11.2628 10.972 11.2532 10.9919 11.2375C11.0094 11.2237 11.0311 11.2059 11.0502 11.1846L10.9727 11.1152ZM10.8037 11.3008L10.6996 11.3007L10.6957 14.4266L10.7998 14.4268L10.9039 14.4269L10.9078 11.3009L10.8037 11.3008ZM10.7998 14.4268L10.6961 14.4183C10.6918 14.4702 10.6853 14.4914 10.6821 14.4983C10.6812 14.5003 10.6822 14.4975 10.6865 14.4934C10.6911 14.4892 10.6956 14.4871 10.6974 14.4865C10.6982 14.4862 10.6963 14.487 10.6881 14.4881C10.6789 14.4893 10.6707 14.4899 10.6543 14.4915C10.6246 14.4945 10.5843 14.4997 10.5374 14.5159L10.5713 14.6143L10.6052 14.7126C10.6298 14.7042 10.6516 14.701 10.6753 14.6986C10.6931 14.6968 10.7336 14.6946 10.7675 14.6824C10.8133 14.6661 10.8488 14.6339 10.8711 14.5855C10.8901 14.5443 10.8988 14.4932 10.9035 14.4353L10.7998 14.4268ZM10.5713 14.6143L10.5371 14.516C10.5197 14.522 10.5055 14.5302 10.4951 14.5369C10.4852 14.5433 10.4759 14.5504 10.4705 14.5544C10.4559 14.5653 10.4565 14.5636 10.4609 14.5622L10.4932 14.6611L10.5255 14.7601C10.5588 14.7492 10.5848 14.7288 10.5952 14.721C10.6023 14.7157 10.6054 14.7134 10.6082 14.7116C10.6105 14.7101 10.6093 14.7112 10.6055 14.7126L10.5713 14.6143ZM10.4932 14.6611L10.461 14.5622C10.1271 14.6706 9.78958 14.7549 9.4431 14.7951L9.45508 14.8984L9.46705 15.0018C9.83114 14.9596 10.1826 14.8714 10.5253 14.7601L10.4932 14.6611ZM9.45508 14.8984H9.55914V10.708H9.45508H9.35101V14.8984H9.45508ZM9.45508 10.708L9.53113 10.779L10.2763 9.98119L10.2002 9.91016L10.1241 9.83913L9.37902 10.637L9.45508 10.708ZM10.2002 9.91016L10.2764 9.98107C10.3144 9.94024 10.3614 9.89699 10.412 9.85059C10.461 9.80562 10.5139 9.75729 10.5575 9.71071L10.4814 9.63965L10.4054 9.56858C10.3685 9.60809 10.3221 9.65062 10.2713 9.69718C10.2221 9.74231 10.1687 9.79127 10.124 9.83924L10.2002 9.91016ZM10.4814 9.63965L10.5574 9.71074C10.58 9.68668 10.6056 9.66019 10.626 9.63545C10.6469 9.61022 10.6693 9.57887 10.6827 9.54078C10.714 9.45142 10.6824 9.36906 10.6248 9.29086L10.541 9.35254L10.4572 9.41421C10.4773 9.44158 10.4839 9.45754 10.486 9.46517C10.4873 9.47011 10.4867 9.47071 10.4863 9.47189C10.4848 9.47596 10.4803 9.48505 10.4656 9.50284C10.4505 9.52112 10.432 9.54021 10.4054 9.56856L10.4814 9.63965ZM10.541 9.35254L10.6248 9.2908C10.5378 9.17274 10.3565 9.01372 10.251 8.9344L10.1885 9.01758L10.1259 9.10075C10.226 9.17599 10.3882 9.32059 10.4572 9.41428L10.541 9.35254ZM10.1885 9.01758L10.2647 8.94668L9.53126 8.1586L9.45508 8.22949L9.3789 8.30039L10.1123 9.08847L10.1885 9.01758ZM9.45508 8.22949H9.55914V4.10156H9.45508H9.35101V8.22949H9.45508ZM7.14941 6.00098L7.15616 5.89713C7.12689 5.89523 7.1017 5.90469 7.09076 5.90903C7.07613 5.91483 7.06121 5.92243 7.04717 5.93028C7.01885 5.94611 6.98546 5.96783 6.95006 5.99237C6.8788 6.04178 6.79177 6.10797 6.7063 6.1754C6.53701 6.30896 6.36382 6.45538 6.3244 6.49426L6.39746 6.56836L6.47053 6.64246C6.5006 6.61281 6.66506 6.47305 6.83521 6.3388C6.91945 6.27234 7.00259 6.20922 7.06865 6.16341C7.10191 6.14035 7.12897 6.12299 7.14872 6.11196C7.15871 6.10637 7.16474 6.10359 7.16744 6.10252C7.17383 6.09999 7.16236 6.1061 7.14267 6.10482L7.14941 6.00098ZM6.39746 6.56836L6.32434 6.49431C4.663 8.13481 4.68812 10.9185 6.38399 12.5047L6.45508 12.4287L6.52616 12.3527C4.91774 10.8483 4.89223 8.20096 6.47058 6.64241L6.39746 6.56836ZM6.45508 12.4287L6.38398 12.5047C6.54418 12.6546 6.75812 12.861 6.93556 12.9975L6.99902 12.915L7.06249 12.8326C6.89532 12.7039 6.69162 12.5075 6.52618 12.3527L6.45508 12.4287ZM6.99902 12.915L6.93553 12.9975C6.96052 13.0167 6.98851 13.0372 7.0164 13.0532C7.04159 13.0675 7.08081 13.0867 7.12545 13.0866C7.15028 13.0865 7.17768 13.0805 7.20329 13.0643C7.22855 13.0482 7.24569 13.0262 7.25696 13.0043C7.27772 12.9637 7.28283 12.9149 7.28278 12.868L7.17871 12.8682L7.07465 12.8683C7.07467 12.8853 7.07361 12.8969 7.07237 12.9043C7.07109 12.9121 7.07003 12.9126 7.07173 12.9093C7.07373 12.9054 7.07953 12.8963 7.09168 12.8886C7.10418 12.8807 7.11667 12.8785 7.12508 12.8785C7.1324 12.8784 7.13567 12.88 7.13336 12.8792C7.13131 12.8785 7.12684 12.8766 7.11958 12.8724C7.10466 12.8639 7.08596 12.8506 7.06251 12.8326L6.99902 12.915ZM7.17871 12.8682L7.28278 12.868C7.28 10.6069 7.2615 6.05993 7.26129 6.00934L7.15723 6.00977L7.05316 6.01019C7.05337 6.06088 7.07187 10.6076 7.07465 12.8683L7.17871 12.8682ZM7.15723 6.00977L7.23501 5.94063L7.22719 5.93184L7.14941 6.00098L7.07163 6.07011L7.07945 6.0789L7.15723 6.00977ZM10.7998 7.59863H10.6957C10.6957 7.6191 10.702 7.63756 10.703 7.6405C10.7055 7.64847 10.7086 7.65695 10.7117 7.66489C10.718 7.68102 10.7262 7.69999 10.7345 7.71836C10.7494 7.75119 10.771 7.79591 10.7854 7.81682L10.8711 7.75781L10.9568 7.6988C10.9573 7.69951 10.9537 7.69369 10.946 7.67834C10.9393 7.66506 10.9315 7.64874 10.9241 7.63242C10.9166 7.61597 10.9101 7.60061 10.9056 7.58909C10.9033 7.58321 10.902 7.57953 10.9014 7.57779C10.9011 7.57688 10.9014 7.57762 10.9018 7.57951C10.9019 7.57989 10.9039 7.58767 10.9039 7.59863H10.7998ZM10.8711 7.75781L10.8025 7.83608C10.9441 7.96015 11.0736 8.10196 11.2063 8.2492C11.3377 8.39495 11.4726 8.5466 11.62 8.68208L11.6904 8.60547L11.7609 8.52886C11.6222 8.40139 11.4943 8.25787 11.3609 8.10986C11.2289 7.96333 11.0917 7.81279 10.9397 7.67954L10.8711 7.75781ZM11.6904 8.60547L11.62 8.68206C11.6778 8.73525 11.7341 8.78659 11.8003 8.82399C11.87 8.86341 11.9461 8.88522 12.0437 8.89099L12.0498 8.78711L12.056 8.68323C11.9854 8.67905 11.9411 8.66449 11.9027 8.64281C11.8608 8.6191 11.8215 8.58459 11.7609 8.52888L11.6904 8.60547ZM12.0498 8.78711L12.0434 8.89098C12.0816 8.89332 12.1156 8.88703 12.1376 8.88279C12.1646 8.87757 12.171 8.87641 12.1757 8.87651L12.1777 8.77246L12.1798 8.66842C12.1475 8.66777 12.1138 8.6754 12.0982 8.67842C12.0774 8.68243 12.0659 8.68383 12.0562 8.68324L12.0498 8.78711ZM12.1777 8.77246L12.1753 8.8765C12.3572 8.88082 12.5223 8.879 12.6953 8.88715L12.7002 8.7832L12.7051 8.67925C12.5302 8.67102 12.3516 8.6725 12.1802 8.66843L12.1777 8.77246ZM12.7002 8.7832L12.8043 8.78304C12.8037 8.43691 12.6801 8.08822 12.5495 7.78764L12.4541 7.8291L12.3587 7.87057C12.487 8.16591 12.5956 8.4819 12.5961 8.78337L12.7002 8.7832ZM12.4541 7.8291L12.5495 7.78761C12.2727 7.15092 11.9343 6.72663 11.4181 6.28698L11.3506 6.36621L11.2831 6.44544C11.7784 6.86727 12.0961 7.26664 12.3587 7.87059L12.4541 7.8291ZM11.3506 6.36621L11.418 6.28696C11.3444 6.2243 11.2534 6.13756 11.159 6.07038C11.0614 6.00094 10.9457 5.94084 10.8076 5.93041L10.7998 6.03418L10.792 6.13795C10.8774 6.1444 10.9567 6.18185 11.0384 6.23997C11.1232 6.30035 11.1959 6.37119 11.2831 6.44546L11.3506 6.36621ZM10.7998 6.03418H10.6957V7.59863H10.7998H10.9039V6.03418H10.7998Z" fill="black" fill-opacity="0.1" mask="url(#path-1-inside-1_15_11677)"/>
</g>
</g>
<defs>
<linearGradient id="paint0_linear_15_11677" x1="8.99996" y1="1.5" x2="8.99996" y2="17.5004" gradientUnits="userSpaceOnUse">
<stop stop-color="#42B4FA"/>
<stop offset="1" stop-color="#08EBFC"/>
</linearGradient>
</defs>
</svg>
