<svg width="32" height="32" viewBox="0 0 32 32" fill="none" xmlns="http://www.w3.org/2000/svg">
<path d="M0 16.0029C0 7.16637 7.16344 0.00292969 16 0.00292969C24.8366 0.00292969 32 7.16637 32 16.0029C32 24.8395 24.8366 32.0029 16 32.0029C7.16344 32.0029 0 24.8395 0 16.0029Z" fill="#162F29"/>
<path d="M28 16.0672C28 16.1889 27.9983 16.3106 27.9947 16.4322H22.1582V16.1663H16.5406C16.5406 16.1107 16.5423 16.0551 16.5423 16.0012C16.5423 15.9473 16.5423 15.89 16.5406 15.8361H22.1582V15.5719H27.9897C27.9966 15.737 28 15.9021 28 16.0672ZM16.4415 14.8697L21.9393 14.1935L21.9722 14.4577L27.7775 13.7434C27.7218 13.4583 27.6558 13.1767 27.5812 12.9004L21.8661 13.6043L21.8992 13.8685L16.3754 14.5481C16.3998 14.6559 16.4224 14.7636 16.4415 14.8732V14.8697ZM16.1547 13.8059L21.4091 12.4936L21.4734 12.7509L27.0494 11.3587C26.9346 11.0893 26.811 10.8233 26.679 10.5643L21.2666 11.9166L21.3309 12.1739L16.033 13.4983C16.0765 13.6008 16.1164 13.7034 16.1547 13.8077V13.8059ZM15.6889 12.81L20.6008 10.9554L20.6946 11.204L25.8916 9.24163C25.7231 8.99481 25.5458 8.75495 25.3581 8.52206L20.3906 10.3975L20.4844 10.646L15.5133 12.5232C15.5742 12.6171 15.6333 12.7127 15.6889 12.81ZM15.044 11.8888L19.3824 9.6275L19.504 9.86387L24.3014 7.36271C24.0806 7.14892 23.8511 6.94557 23.6147 6.74915L19.106 9.09911L19.2277 9.33549L14.8163 11.635C14.8928 11.7184 14.9693 11.8019 15.0423 11.8888H15.044ZM13.9977 10.8946L17.9258 8.3969L18.0684 8.62113L22.4032 5.86447C22.1303 5.69066 21.8522 5.52899 21.5654 5.37779L17.6078 7.89458L17.7503 8.11881L13.7092 10.6877C13.8082 10.7538 13.9038 10.8233 13.9994 10.8946H13.9977ZM13.0695 10.314L16.3615 7.61474L16.5301 7.81984L20.2374 4.77813C19.9229 4.6582 19.5996 4.55044 19.2729 4.45658L15.9844 7.15415L16.153 7.35923L12.741 10.1576C12.8523 10.2063 12.9618 10.2584 13.0695 10.314ZM11.8407 9.83608L14.4409 7.24799L14.6269 7.43572L17.9311 4.1524C17.573 4.09331 17.2097 4.04985 16.8412 4.02206L14.0237 6.82564L14.2097 7.01337L11.4635 9.7457C11.5904 9.77176 11.7155 9.80131 11.8407 9.83608ZM10.4032 9.61881L12.4768 7.10548L12.6819 7.27408L15.3812 4.00293C14.971 4.02206 14.566 4.06202 14.168 4.12113L12.018 6.72657L12.223 6.89517L9.97739 9.61706C10.04 9.61533 10.1043 9.61358 10.1668 9.61358C10.2468 9.61358 10.325 9.6136 10.4032 9.61706V9.61881ZM9.16048 9.69355L10.7578 7.22193L10.9803 7.36619L12.9113 4.37663C12.4699 4.49135 12.0388 4.63039 11.6182 4.79203L10.259 6.8969L10.4815 7.04116L8.71204 9.78045C8.85978 9.7457 9.00928 9.71613 9.16048 9.69179V9.69355ZM7.78041 10.0777L8.92931 7.92415L9.16223 8.04928L10.6831 5.20051C10.1947 5.43861 9.72537 5.70803 9.27695 6.00698L8.40266 7.64431L8.6373 7.76944L7.28505 10.3036C7.44496 10.2219 7.61008 10.1472 7.77868 10.0794L7.78041 10.0777ZM6.78969 10.5835L7.27809 9.19643L7.52838 9.28509L8.47742 6.59099C7.99595 6.97339 7.54403 7.39053 7.12514 7.8407L6.71668 9.00004L6.96698 9.08867L6.32735 10.9033C6.47682 10.7903 6.62978 10.6843 6.78796 10.5852L6.78969 10.5835ZM5.57126 11.5759L5.7868 10.5678L6.04576 10.6234L6.4803 8.59331C6.02318 9.17385 5.6182 9.79783 5.27231 10.4566L5.46525 10.4983L5.06894 12.1669C5.22364 11.9601 5.39224 11.7619 5.57126 11.5759ZM4.67613 12.7544V11.4195C4.35285 12.2729 4.12341 13.3349 4 14.376C4.15122 13.799 4.38064 13.255 4.67613 12.7544ZM4.00869 17.6611C4.13558 18.5493 4.35806 19.4062 4.66744 20.2214V19.2358C4.38239 18.7492 4.15816 18.2208 4.00869 17.6611ZM5.11067 19.8946L5.45654 21.5076L5.26362 21.5493C5.60951 22.2098 6.01449 22.8321 6.47162 23.4124L6.03707 21.3825L5.77809 21.438L5.55909 20.4177C5.40093 20.2509 5.2497 20.0771 5.11067 19.8928V19.8946ZM6.31518 21.0938L6.95829 22.919L6.70799 23.0076L7.11645 24.167C7.53534 24.617 7.98726 25.0341 8.4687 25.4167L7.5197 22.7225L7.2694 22.8112L6.77925 21.4171C6.62109 21.3163 6.46641 21.2104 6.31691 21.0974L6.31518 21.0938ZM7.27463 21.6969L8.63037 24.2381L8.39572 24.3633L9.26999 26.0006C9.71843 26.2996 10.1877 26.5689 10.6761 26.807L9.15527 23.9582L8.92062 24.0835L7.76824 21.9247C7.59964 21.857 7.43452 21.7804 7.27288 21.6989L7.27463 21.6969ZM8.70162 22.222L10.4728 24.9648L10.2503 25.109L11.6095 27.2138C12.0301 27.3756 12.4612 27.5145 12.9027 27.6292L10.9716 24.6396L10.7491 24.7838L9.15006 22.3089C8.99884 22.2845 8.84762 22.2549 8.69987 22.2201L8.70162 22.222ZM9.96698 22.3888L12.2126 25.1107L12.0075 25.2794L14.1576 27.8848C14.5556 27.9439 14.9606 27.9837 15.3708 28.0029L12.6715 24.73L12.4664 24.8985L10.3928 22.3853C10.3181 22.3888 10.2416 22.3888 10.1651 22.3888C10.0991 22.3888 10.0313 22.3888 9.96525 22.3853L9.96698 22.3888ZM11.4565 22.2602L14.201 24.9907L14.0151 25.1784L16.8326 27.982C17.201 27.9542 17.5643 27.9108 17.9224 27.8517L14.6199 24.5666L14.4322 24.7562L11.8337 22.1697C11.7103 22.2028 11.5834 22.234 11.4565 22.2602ZM12.7358 21.8517L16.1443 24.6484L15.9757 24.8534L19.2642 27.551C19.591 27.4572 19.9143 27.3494 20.2288 27.2294L16.5197 24.1876L16.3511 24.3928L13.0626 21.6952C12.9548 21.7509 12.8453 21.803 12.7341 21.8517H12.7358ZM13.7022 21.3199L17.7381 23.8872L17.5956 24.1113L21.5534 26.628C21.8402 26.4768 22.12 26.3136 22.391 26.1415L18.0562 23.3848L17.9137 23.609L13.9907 21.1147C13.8951 21.186 13.7995 21.2556 13.7005 21.3216L13.7022 21.3199ZM14.8146 20.3743L19.2208 22.6704L19.0991 22.9068L23.6078 25.2566C23.8442 25.0603 24.0736 24.857 24.2944 24.6432L19.4971 22.1419L19.3754 22.3783L15.0423 20.1206C14.9693 20.2075 14.8946 20.2927 14.8163 20.3743H14.8146ZM15.5116 19.4844L20.4758 21.3597L20.3819 21.6084L25.3494 23.4837C25.5354 23.2509 25.7126 23.0109 25.883 22.7642L20.686 20.802L20.5922 21.0504L15.6871 19.1976C15.6315 19.2949 15.5724 19.3905 15.5116 19.4844ZM16.0313 18.511L21.3203 19.832L21.256 20.0892L26.6685 21.4416C26.8024 21.1826 26.9258 20.9167 27.0405 20.6472L21.4646 19.255L21.4002 19.5122L16.153 18.2017C16.1147 18.3059 16.073 18.4085 16.0313 18.511ZM16.3754 17.4612L21.8906 18.1391L21.8574 18.4033L27.5723 19.1072C27.6472 18.8291 27.7132 18.5476 27.7689 18.2642L21.9635 17.5499L21.9304 17.814L16.4415 17.1379C16.4224 17.2474 16.3998 17.3552 16.3754 17.4629V17.4612Z" fill="white"/>
</svg>
