<svg width="20" height="20" viewBox="0 0 20 20" fill="none" xmlns="http://www.w3.org/2000/svg">
<g id="okx">
<rect width="20" height="20" rx="10" fill="black"/>
<g id="Frame 1321319037">
<g id="Group 1321319210">
<path id="Vector" d="M5 5.36929C5 5.34224 5.02193 5.32031 5.04898 5.32031H8.06943C8.09648 5.32031 8.11841 5.34224 8.11841 5.36929V8.43872H5.04898C5.02193 8.43872 5 8.4168 5 8.38975V5.36929ZM11.2368 5.36929C11.2368 5.34224 11.2587 5.32031 11.2858 5.32031H14.3063C14.3333 5.32031 14.3552 5.34224 14.3552 5.36929V8.38975C14.3552 8.4168 14.3333 8.43872 14.3063 8.43872H11.2368V5.36929ZM5 11.6061C5 11.5791 5.02193 11.5571 5.04898 11.5571H8.11841V14.6266C8.11841 14.6536 8.09648 14.6755 8.06943 14.6755H5.04898C5.02193 14.6755 5 14.6536 5 14.6266V11.6061ZM11.2368 11.5571H14.3063C14.3333 11.5571 14.3552 11.5791 14.3552 11.6061V14.6266C14.3552 14.6536 14.3333 14.6755 14.3063 14.6755H11.2858C11.2587 14.6755 11.2368 14.6536 11.2368 14.6266V11.5571ZM8.11841 8.43872H11.2368V11.5571H8.11841V8.43872Z" fill="white"/>
<g id="Subtract">
<path d="M16.0241 11.5571C16.0512 11.5571 16.0731 11.5791 16.0731 11.6061V14.6266C16.0731 14.6536 16.0512 14.6755 16.0241 14.6755H14.75V11.5571H16.0241Z" fill="white" fill-opacity="0.5"/>
<path d="M16.0241 5.32031C16.0512 5.32031 16.0731 5.34224 16.0731 5.36929V8.38975C16.0731 8.4168 16.0512 8.43872 16.0241 8.43872H14.75V5.32031H16.0241Z" fill="white" fill-opacity="0.5"/>
</g>
<g id="Subtract_2">
<path d="M16.947 11.5571C16.974 11.5571 16.9959 11.5791 16.9959 11.6061V14.6266C16.9959 14.6536 16.974 14.6755 16.947 14.6755H16.4688V11.5571H16.947Z" fill="white" fill-opacity="0.3"/>
<path d="M16.947 5.32031C16.974 5.32031 16.9959 5.34224 16.9959 5.36929V8.38975C16.9959 8.4168 16.974 8.43872 16.947 8.43872H16.4688V5.32031H16.947Z" fill="white" fill-opacity="0.3"/>
</g>
</g>
</g>
</g>
</svg>
