<?xml version="1.0" standalone="no"?><!DOCTYPE svg PUBLIC "-//W3C//DTD SVG 1.1//EN" "http://www.w3.org/Graphics/SVG/1.1/DTD/svg11.dtd"><svg t="1750230251514" class="icon" viewBox="0 0 1024 1024" version="1.1" xmlns="http://www.w3.org/2000/svg" p-id="3119" xmlns:xlink="http://www.w3.org/1999/xlink" width="16" height="16"><path d="M512 512m-512 0a512 512 0 1 0 1024 0 512 512 0 1 0-1024 0Z" fill="#000000" p-id="3120"></path><path d="M734.08 643.008l-222.528 222.528L290.56 644.48l80.512-80.512 140.8 140.928 142.08-142.144 80.256 80.256zM598.592 507.904L511.68 594.56 424.96 507.904l86.72-86.848 86.848 86.848z m-280.64-3.2l-3.008 2.944 1.344 1.6-80.448 80.512L153.6 507.648 237.44 424.192l80.512 80.512z m552.576 2.56l-81.088 81.088-80.512-80.448v-1.216l80.512-80.448 81.088 81.088z m-136.64-135.808l-80.512 80.512-141.44-141.504-139.52 139.52L291.84 369.344l219.968-219.904 222.016 221.952z" fill="#FCD535" p-id="3121"></path></svg>