<svg width="20" height="20" viewBox="0 0 20 20" fill="none" xmlns="http://www.w3.org/2000/svg">
<g id="Group 34336">
<path id="Vector" d="M0 10C0 12.6522 1.05357 15.1957 2.92893 17.0711C4.8043 18.9464 7.34783 20 10 20C12.6522 20 15.1957 18.9464 17.0711 17.0711C18.9464 15.1957 20 12.6522 20 10C20 7.34784 18.9464 4.8043 17.0711 2.92893C15.1957 1.05357 12.6522 0 10 0C7.34783 0 4.8043 1.05357 2.92893 2.92893C1.05357 4.8043 0 7.34784 0 10Z" fill="#687EE3"/>
<g id="Group 34337">
<path id="Vector_2" d="M13.9998 10.2244L9.99977 12.4527L5.99976 10.2244L6.01825 10.191L9.99977 3.52057L13.9774 10.1873L13.9998 10.2244Z" fill="white"/>
<path id="Vector_3" d="M13.9965 10.963L13.9779 10.9891L10.0002 16.4784L6.0187 10.9854L6.00391 10.963L6.0187 10.9741L10.0002 13.34L13.9779 10.9741L13.9965 10.963Z" fill="white"/>
<path id="Vector_4" d="M13.9998 10.2254L9.99977 12.4537L5.99976 10.2254L6.01825 10.1919L9.99977 8.3869L13.9774 10.1882L13.9998 10.2254Z" fill="white"/>
<path id="Vector_5" opacity="0.8" d="M14 10.2244L10 12.4527V3.52057L13.9776 10.1873L14 10.2244Z" fill="white"/>
<path id="Vector_6" d="M13.9963 10.963L13.9776 10.9891L10 16.4784V13.34L13.9776 10.9741L13.9963 10.963Z" fill="white"/>
</g>
</g>
</svg>
