<?xml version="1.0" standalone="no"?><!DOCTYPE svg PUBLIC "-//W3C//DTD SVG 1.1//EN" "http://www.w3.org/Graphics/SVG/1.1/DTD/svg11.dtd"><svg t="1752459864730" class="icon" viewBox="0 0 1024 1024" version="1.1" xmlns="http://www.w3.org/2000/svg" p-id="3498" xmlns:xlink="http://www.w3.org/1999/xlink" width="16" height="16"><path d="M512.00096 1024c283.711468 0 511.99904-228.287572 511.99904-511.99904s-228.287572-511.99904-511.99904-511.99904a510.719042 510.719042 0 0 0-511.99904 511.99904c0 283.711468 228.287572 511.99904 511.99904 511.99904z" fill="#2775CA" p-id="3499"></path><path d="M652.800696 593.024808c0-74.62386-44.799916-100.223812-134.399748-110.911792-63.99988-8.511984-76.799856-25.599952-76.799856-55.487896 0-29.823944 21.31196-49.023908 63.99988-49.023908 38.399928 0 59.711888 12.799976 70.399868 44.799916a15.99997 15.99997 0 0 0 14.911972 10.62398h34.175936c8.511984 0 14.911972-6.399988 14.911972-14.911972V416.00114a106.5598 106.5598 0 0 0-95.99982-87.487836v-51.199904c0-8.511984-6.399988-14.911972-17.087968-17.087968h-31.99994c-8.511984 0-14.911972 6.399988-17.023968 17.087968V326.401308c-63.99988 8.511984-104.575804 51.199904-104.575804 104.511804 0 70.399868 42.68792 98.111816 132.287752 108.799796 59.711888 10.68798 78.911852 23.487956 78.911852 57.599892s-29.823944 57.599892-70.399868 57.599892c-55.423896 0-74.62386-23.487956-81.023848-55.487896-2.175996-8.511984-8.575984-12.799976-14.975972-12.799976h-36.223932c-8.575984 0-14.975972 6.399988-14.975972 14.975972v2.111996c8.575984 53.3119 42.68792 91.711828 113.087788 102.399808v51.199904c0 8.511984 6.399988 14.911972 17.087968 17.087968h31.99994c8.511984 0 14.911972-6.399988 17.023968-17.087968v-51.199904c63.99988-10.68798 106.6878-55.487896 106.6878-113.087788z" fill="#FFFFFF" p-id="3500"></path><path d="M403.201164 817.088388c-166.399688-59.711888-251.711528-245.31154-189.823644-409.599232 31.99994-89.599832 102.399808-157.823704 189.823644-189.823644 8.575984-4.287992 12.799976-10.68798 12.799976-21.37596v-29.823944c0-8.575984-4.223992-14.975972-12.799976-17.087968-2.111996 0-6.399988 0-8.511984 2.111996-202.68762 63.99988-313.599412 279.487476-249.599532 482.175096a383.74328 383.74328 0 0 0 249.599532 249.599532c8.511984 4.223992 17.087968 0 19.199964-8.575984 2.111996-2.111996 2.111996-4.223992 2.111996-8.511984v-29.887944c0-6.399988-6.399988-14.911972-12.799976-19.199964z m226.175576-665.598752c-8.575984-4.223992-17.087968 0-19.199964 8.575984-2.175996 2.111996-2.175996 4.223992-2.175996 8.511984v29.887944c0 8.511984 6.399988 17.023968 12.799976 21.31196 166.399688 59.711888 251.775528 245.31154 189.887644 409.599232A315.519408 315.519408 0 0 1 620.800756 819.264384c-8.511984 4.223992-12.799976 10.62398-12.799976 21.31196v29.887944c0 8.511984 4.287992 14.911972 12.799976 17.023968 2.175996 0 6.399988 0 8.575984-2.111996 202.62362-63.99988 313.599412-279.487476 249.599532-482.111096a386.943274 386.943274 0 0 0-249.599532-251.775528z" fill="#FFFFFF" p-id="3501"></path></svg>