<?xml version="1.0" standalone="no"?><!DOCTYPE svg PUBLIC "-//W3C//DTD SVG 1.1//EN" "http://www.w3.org/Graphics/SVG/1.1/DTD/svg11.dtd"><svg t="1752459888323" class="icon" viewBox="0 0 1024 1024" version="1.1" xmlns="http://www.w3.org/2000/svg" p-id="3657" xmlns:xlink="http://www.w3.org/1999/xlink" width="16" height="16"><path d="M1023.104 511.808a509.44 509.44 0 1 1-1018.88 0 509.44 509.44 0 0 1 1018.88 0z" fill="#1BA27A" p-id="3658"></path><path d="M752.768 259.2H270.336v116.48h182.976v171.2h116.48V375.68h182.976V259.2z" fill="#FFFFFF" p-id="3659"></path><path d="M512.64 565.12c-151.36 0-274.048-24-274.048-53.568 0-29.504 122.688-53.504 274.048-53.504s274.048 24 274.048 53.504c0 29.568-122.688 53.504-274.048 53.504z m307.776-44.608c0-38.144-137.792-68.992-307.776-68.992-169.92 0-307.712 30.848-307.712 68.992 0 33.536 106.816 61.44 248.384 67.712v245.76h116.48V588.224c142.656-6.016 250.56-34.048 250.56-67.84z" fill="#FFFFFF" p-id="3660"></path></svg>